<svg xmlns="http://www.w3.org/2000/svg" width="1200" height="630" viewBox="0 0 1200 630" fill="none">
  <rect width="1200" height="630" fill="#0a0f1e"/>
  <rect width="1200" height="630" fill="url(#bg)" opacity="0.9"/>
  <defs>
    <radialGradient id="bg" cx="30%" cy="20%" r="70%">
      <stop offset="0%" stop-color="#1e3a5f"/>
      <stop offset="100%" stop-color="#0a0f1e"/>
    </radialGradient>
  </defs>
  <text x="80" y="120" fill="#64748b" font-family="system-ui,sans-serif" font-size="22" letter-spacing="6">INTEGRATED FLIGHT TEST PROGRAM</text>
  <text x="80" y="210" fill="#f8fafc" font-family="system-ui,sans-serif" font-size="64" font-weight="700">Starship Flight Explorer</text>
  <text x="80" y="280" fill="#94a3b8" font-family="system-ui,sans-serif" font-size="28">IFT-1 through IFT-13  mission maps &amp; stage outcomes</text>
  <path d="M900 420c-1.2 3.2-1.8 6.1-1.8 8.7 0 1.8.3 3.4.9 4.8l16 26 0.9-7.9c.6-1.4.9-3 .9-4.8 0-2.6-.6-5.5-1.8-8.7Z" fill="#e2e8f0" transform="scale(3) translate(250 80)"/>
  <path d="M16 13.2 12.8 18h6.4L16 13.2Z" fill="#38bdf8" transform="scale(3) translate(250 80)"/>
  <ellipse cx="900" cy="520" rx="8" ry="14" fill="#fb923c" opacity="0.9" transform="scale(3) translate(250 80)"/>
  <path d="M80 480 Q300 380 520 300 T920 260" stroke="#10b981" stroke-width="4" fill="none" opacity="0.6"/>
  <path d="M520 300 Q400 380 280 460" stroke="#f59e0b" stroke-width="3" fill="none" stroke-dasharray="8 8" opacity="0.5"/>
  <circle cx="80" cy="480" r="10" fill="#10b981"/>
  <circle cx="520" cy="300" r="10" fill="#f59e0b"/>
  <circle cx="920" cy="260" r="10" fill="#10b981"/>
</svg>
